# xmcd CD database file
#
# Track frame offsets:
#	150
#	12852
#	32893
#	58073
#	78947
#	113004
#	146565
#	169506
#	192940
#	226045
#	247510
#	268852
#	296236
#
# Disc length: 4307 seconds
#
# Revision: 2
# Processed by: cddbd v1.4b41PL1 Copyright (c) Steve Scherf et al.
# Submitted via: Feurio! 1.54ß - http://www.feurio.com
#
DISCID=a710d10d
DTITLE=Bruce Springsteen - In Concert Mtv Plugged
DYEAR=1900
DGENRE=
TTITLE0=Red Headed Woman
TTITLE1=Better Days
TTITLE2=Atlantic City
TTITLE3=Darkness On The Edge Of Town
TTITLE4=Man's Job
TTITLE5=Human Touch
TTITLE6=Lucky Town
TTITLE7=I Wish I Were Blind
TTITLE8=Thunder Road
TTITLE9=Light Of Day
TTITLE10=If I Should Fall Behind
TTITLE11=Living Proof
TTITLE12=My Beautiful Reward
EXTD=
EXTT0=
EXTT1=
EXTT2=
EXTT3=
EXTT4=
EXTT5=
EXTT6=
EXTT7=
EXTT8=
EXTT9=
EXTT10=
EXTT11=
EXTT12=
PLAYORDER=
